<svg width="60" height="60" viewBox="0 0 60 60" fill="none" xmlns="http://www.w3.org/2000/svg">
<path d="M26.9652 30.2472L35.3874 20.955C35.8326 20.4642 35.7954 19.7052 35.304 19.2606C34.8138 18.8154 34.0542 18.8532 33.6096 19.344L24.4704 29.4264C24.225 29.697 24.1314 30.0492 24.1746 30.3852C24.165 30.7236 24.2922 31.0638 24.5628 31.3086L34.644 40.4472C34.8738 40.656 35.1624 40.7586 35.4504 40.7586C35.7774 40.7586 36.1026 40.6254 36.3396 40.3644C36.7842 39.8736 36.7476 39.1146 36.2562 38.67L26.9652 30.2472Z" fill="black"/>
<path d="M50.4798 29.8536C50.4798 18.7848 41.4738 9.77942 30.405 9.77942C19.3362 9.77942 10.3308 18.7848 10.3308 29.8536C10.3308 40.923 19.3362 49.9284 30.405 49.9284C41.4738 49.9284 50.4798 40.923 50.4798 29.8536ZM30.405 47.5284C20.6592 47.5284 12.7308 39.5994 12.7308 29.8536C12.7308 20.1084 20.6592 12.1794 30.405 12.1794C40.1508 12.1794 48.0798 20.1084 48.0798 29.8536C48.0798 39.5994 40.1508 47.5284 30.405 47.5284Z" fill="black"/>
</svg>
